<?xml version="1.0" encoding="utf-8"?>
<svg version="1.1" xmlns:xlink="http://www.w3.org/1999/xlink" width="27px" height="21px" xmlns="http://www.w3.org/2000/svg">
  <g transform="matrix(1 0 0 1 -1157 -499 )">
    <path d="M 20.4609375 18.990234375  C 20.6664663461538 18.8170572916667  20.7692307692308 18.6119791666667  20.7692307692308 18.375  C 20.7692307692308 18.1380208333333  20.6664663461538 17.9329427083333  20.4609375 17.759765625  C 20.2554086538462 17.5865885416667  20.0120192307692 17.5  19.7307692307692 17.5  C 19.4495192307692 17.5  19.2061298076923 17.5865885416667  19.0006009615385 17.759765625  C 18.7950721153846 17.9329427083333  18.6923076923077 18.1380208333333  18.6923076923077 18.375  C 18.6923076923077 18.6119791666667  18.7950721153846 18.8170572916667  19.0006009615385 18.990234375  C 19.2061298076923 19.1634114583333  19.4495192307692 19.25  19.7307692307692 19.25  C 20.0120192307692 19.25  20.2554086538462 19.1634114583333  20.4609375 18.990234375  Z M 24.6147836538462 18.990234375  C 24.8203125 18.8170572916667  24.9230769230769 18.6119791666667  24.9230769230769 18.375  C 24.9230769230769 18.1380208333333  24.8203125 17.9329427083333  24.6147836538462 17.759765625  C 24.4092548076923 17.5865885416667  24.1658653846154 17.5  23.8846153846154 17.5  C 23.6033653846154 17.5  23.3599759615385 17.5865885416667  23.1544471153846 17.759765625  C 22.9489182692308 17.9329427083333  22.8461538461538 18.1380208333333  22.8461538461538 18.375  C 22.8461538461538 18.6119791666667  22.9489182692308 18.8170572916667  23.1544471153846 18.990234375  C 23.3599759615385 19.1634114583333  23.6033653846154 19.25  23.8846153846154 19.25  C 24.1658653846154 19.25  24.4092548076923 19.1634114583333  24.6147836538462 18.990234375  Z M 26.5456730769231 14.3828125  C 26.8485576923077 14.6380208333333  27 14.9479166666667  27 15.3125  L 27 19.6875  C 27 20.0520833333333  26.8485576923077 20.3619791666667  26.5456730769231 20.6171875  C 26.2427884615385 20.8723958333333  25.875 21  25.4423076923077 21  L 1.55769230769231 21  C 1.125 21  0.757211538461539 20.8723958333333  0.454326923076923 20.6171875  C 0.151442307692308 20.3619791666667  0 20.0520833333333  0 19.6875  L 0 15.3125  C 0 14.9479166666667  0.151442307692308 14.6380208333333  0.454326923076923 14.3828125  C 0.757211538461539 14.1276041666667  1.125 14  1.55769230769231 14  L 9.10276442307692 14  L 11.2932692307692 15.859375  C 11.9206730769231 16.3697916666667  12.65625 16.625  13.5 16.625  C 14.34375 16.625  15.0793269230769 16.3697916666667  15.7067307692308 15.859375  L 17.9134615384615 14  L 25.4423076923077 14  C 25.875 14  26.2427884615385 14.1276041666667  26.5456730769231 14.3828125  Z M 20.7692307692308 7  C 21.2235576923077 7  21.5426682692308 7.177734375  21.7265625 7.533203125  C 21.9104567307692 7.90690104166667  21.8347355769231 8.22591145833333  21.4993990384615 8.490234375  L 14.2301682692308 14.615234375  C 14.0354567307692 14.7884114583333  13.7920673076923 14.875  13.5 14.875  C 13.2079326923077 14.875  12.9645432692308 14.7884114583333  12.7698317307692 14.615234375  L 5.50060096153846 8.490234375  C 5.16526442307692 8.22591145833333  5.08954326923077 7.90690104166667  5.2734375 7.533203125  C 5.45733173076923 7.177734375  5.77644230769231 7  6.23076923076923 7  L 10.3846153846154 7  L 10.3846153846154 0.874999999999999  C 10.3846153846154 0.63802083333333  10.4873798076923 0.43294270833333  10.6929086538462 0.259765624999999  C 10.8984375 0.086588541666668  11.1418269230769 0  11.4230769230769 0  L 15.5769230769231 0  C 15.8581730769231 0  16.1015625 0.086588541666668  16.3070913461538 0.259765624999999  C 16.5126201923077 0.43294270833333  16.6153846153846 0.63802083333333  16.6153846153846 0.874999999999999  L 16.6153846153846 7  L 20.7692307692308 7  Z " fill-rule="nonzero" fill="#333333" stroke="none" transform="matrix(1 0 0 1 1157 499 )" />
  </g>
</svg>