<?xml version="1.0" encoding="utf-8"?>
<svg version="1.1" xmlns:xlink="http://www.w3.org/1999/xlink" width="29px" height="21px" xmlns="http://www.w3.org/2000/svg">
  <g transform="matrix(1 0 0 1 -1354 -499 )">
    <path d="M 28.546875 14.3828125  C 28.8489583333333 14.6380208333333  29 14.9479166666667  29 15.3125  L 29 19.6875  C 29 20.0520833333333  28.8489583333333 20.3619791666667  28.546875 20.6171875  C 28.2447916666667 20.8723958333333  27.8779761904762 21  27.4464285714286 21  L 22.2678571428571 21  C 21.8363095238095 21  21.4694940476191 20.8723958333333  21.1674107142857 20.6171875  C 20.8653273809524 20.3619791666667  20.7142857142857 20.0520833333333  20.7142857142857 19.6875  L 20.7142857142857 15.3125  C 20.7142857142857 14.9479166666667  20.8653273809524 14.6380208333333  21.1674107142857 14.3828125  C 21.4694940476191 14.1276041666667  21.8363095238095 14  22.2678571428571 14  L 23.8214285714286 14  L 23.8214285714286 11.375  L 15.5357142857143 11.375  L 15.5357142857143 14  L 17.0892857142857 14  C 17.5208333333333 14  17.8876488095238 14.1276041666667  18.1897321428571 14.3828125  C 18.4918154761905 14.6380208333333  18.6428571428571 14.9479166666667  18.6428571428571 15.3125  L 18.6428571428571 19.6875  C 18.6428571428571 20.0520833333333  18.4918154761905 20.3619791666667  18.1897321428571 20.6171875  C 17.8876488095238 20.8723958333333  17.5208333333333 21  17.0892857142857 21  L 11.9107142857143 21  C 11.4791666666667 21  11.1123511904762 20.8723958333333  10.8102678571429 20.6171875  C 10.5081845238095 20.3619791666667  10.3571428571429 20.0520833333333  10.3571428571429 19.6875  L 10.3571428571429 15.3125  C 10.3571428571429 14.9479166666667  10.5081845238095 14.6380208333333  10.8102678571429 14.3828125  C 11.1123511904762 14.1276041666667  11.4791666666667 14  11.9107142857143 14  L 13.4642857142857 14  L 13.4642857142857 11.375  L 5.17857142857143 11.375  L 5.17857142857143 14  L 6.73214285714286 14  C 7.16369047619048 14  7.53050595238095 14.1276041666667  7.83258928571429 14.3828125  C 8.13467261904762 14.6380208333333  8.28571428571428 14.9479166666667  8.28571428571428 15.3125  L 8.28571428571428 19.6875  C 8.28571428571428 20.0520833333333  8.13467261904762 20.3619791666667  7.83258928571429 20.6171875  C 7.53050595238095 20.8723958333333  7.16369047619048 21  6.73214285714286 21  L 1.55357142857143 21  C 1.12202380952381 21  0.755208333333333 20.8723958333333  0.453125 20.6171875  C 0.151041666666667 20.3619791666667  0 20.0520833333333  0 19.6875  L 0 15.3125  C 0 14.9479166666667  0.151041666666667 14.6380208333333  0.453125 14.3828125  C 0.755208333333333 14.1276041666667  1.12202380952381 14  1.55357142857143 14  L 3.10714285714286 14  L 3.10714285714286 11.375  C 3.10714285714286 10.9010416666667  3.31212797619048 10.4908854166667  3.72209821428571 10.14453125  C 4.13206845238095 9.79817708333333  4.61755952380952 9.625  5.17857142857143 9.625  L 13.4642857142857 9.625  L 13.4642857142857 7  L 11.9107142857143 7  C 11.4791666666667 7  11.1123511904762 6.87239583333333  10.8102678571429 6.6171875  C 10.5081845238095 6.36197916666667  10.3571428571429 6.05208333333333  10.3571428571429 5.6875  L 10.3571428571429 1.3125  C 10.3571428571429 0.947916666666666  10.5081845238095 0.63802083333333  10.8102678571429 0.382812499999999  C 11.1123511904762 0.127604166666666  11.4791666666667 0  11.9107142857143 0  L 17.0892857142857 0  C 17.5208333333333 0  17.8876488095238 0.127604166666666  18.1897321428571 0.382812499999999  C 18.4918154761905 0.63802083333333  18.6428571428571 0.947916666666666  18.6428571428571 1.3125  L 18.6428571428571 5.6875  C 18.6428571428571 6.05208333333333  18.4918154761905 6.36197916666667  18.1897321428571 6.6171875  C 17.8876488095238 6.87239583333333  17.5208333333333 7  17.0892857142857 7  L 15.5357142857143 7  L 15.5357142857143 9.625  L 23.8214285714286 9.625  C 24.3824404761905 9.625  24.8679315476191 9.79817708333333  25.2779017857143 10.14453125  C 25.6878720238095 10.4908854166667  25.8928571428571 10.9010416666667  25.8928571428571 11.375  L 25.8928571428571 14  L 27.4464285714286 14  C 27.8779761904762 14  28.2447916666667 14.1276041666667  28.546875 14.3828125  Z " fill-rule="nonzero" fill="#333333" stroke="none" transform="matrix(1 0 0 1 1354 499 )" />
  </g>
</svg>