<?xml version="1.0" encoding="utf-8"?>
<svg version="1.1" xmlns:xlink="http://www.w3.org/1999/xlink" width="17px" height="15px" xmlns="http://www.w3.org/2000/svg">
  <g transform="matrix(1 0 0 1 -1307 -274 )">
    <path d="M 16.5993265993266 11.2121212121212  C 16.8664421997755 11.4478114478114  17 11.7340067340067  17 12.0707070707071  C 17 12.4074074074074  16.8664421997755 12.6936026936027  16.5993265993266 12.9292929292929  L 14.6531986531987 14.6464646464646  C 14.3860830527497 14.8821548821549  14.0617283950617 15  13.6801346801347 15  C 13.2985409652076 15  12.9741863075196 14.8821548821549  12.7070707070707 14.6464646464646  L 8.5 10.9343434343434  L 4.29292929292929 14.6464646464646  C 4.02581369248036 14.8821548821549  3.70145903479237 15  3.31986531986532 15  C 2.93827160493827 15  2.61391694725028 14.8821548821549  2.34680134680135 14.6464646464646  L 0.400673400673401 12.9292929292929  C 0.133557800224467 12.6936026936027  0 12.4074074074074  0 12.0707070707071  C 0 11.7340067340067  0.133557800224467 11.4478114478114  0.400673400673401 11.2121212121212  L 4.60774410774411 7.5  L 0.400673400673401 3.78787878787879  C 0.133557800224467 3.55218855218855  0 3.26599326599327  0 2.92929292929293  C 0 2.59259259259259  0.133557800224467 2.3063973063973  0.400673400673401 2.07070707070707  L 2.34680134680135 0.353535353535354  C 2.61391694725028 0.117845117845117  2.93827160493827 0  3.31986531986532 0  C 3.70145903479237 0  4.02581369248036 0.117845117845117  4.29292929292929 0.353535353535354  L 8.5 4.06565656565657  L 12.7070707070707 0.353535353535354  C 12.9741863075196 0.117845117845117  13.2985409652076 0  13.6801346801347 0  C 14.0617283950617 0  14.3860830527497 0.117845117845117  14.6531986531987 0.353535353535354  L 16.5993265993266 2.07070707070707  C 16.8664421997755 2.3063973063973  17 2.59259259259259  17 2.92929292929293  C 17 3.26599326599327  16.8664421997755 3.55218855218855  16.5993265993266 3.78787878787879  L 12.3922558922559 7.5  L 16.5993265993266 11.2121212121212  Z " fill-rule="nonzero" fill="#ffffff" stroke="none" transform="matrix(1 0 0 1 1307 274 )" />
  </g>
</svg>