<?xml version="1.0" encoding="utf-8"?>
<svg version="1.1" xmlns:xlink="http://www.w3.org/1999/xlink" width="18px" height="16px" xmlns="http://www.w3.org/2000/svg">
  <g transform="matrix(1 0 0 1 -1246 -469 )">
    <path d="M 17.6420454545455 6.13636363636364  C 17.8806818181818 6.34848484848485  18 6.60606060606061  18 6.90909090909091  L 18 9.09090909090909  C 18 9.39393939393939  17.8806818181818 9.65151515151515  17.6420454545455 9.86363636363636  C 17.4034090909091 10.0757575757576  17.1136363636364 10.1818181818182  16.7727272727273 10.1818181818182  L 11.4545454545455 10.1818181818182  L 11.4545454545455 14.9090909090909  C 11.4545454545455 15.2121212121212  11.3352272727273 15.469696969697  11.0965909090909 15.6818181818182  C 10.8579545454545 15.8939393939394  10.5681818181818 16  10.2272727272727 16  L 7.77272727272727 16  C 7.43181818181818 16  7.14204545454546 15.8939393939394  6.90340909090909 15.6818181818182  C 6.66477272727273 15.469696969697  6.54545454545455 15.2121212121212  6.54545454545455 14.9090909090909  L 6.54545454545455 10.1818181818182  L 1.22727272727273 10.1818181818182  C 0.886363636363636 10.1818181818182  0.596590909090909 10.0757575757576  0.357954545454545 9.86363636363636  C 0.119318181818182 9.65151515151515  0 9.39393939393939  0 9.09090909090909  L 0 6.90909090909091  C 0 6.60606060606061  0.119318181818182 6.34848484848485  0.357954545454545 6.13636363636364  C 0.596590909090909 5.92424242424242  0.886363636363636 5.81818181818182  1.22727272727273 5.81818181818182  L 6.54545454545455 5.81818181818182  L 6.54545454545455 1.09090909090909  C 6.54545454545455 0.787878787878787  6.66477272727273 0.530303030303029  6.90340909090909 0.318181818181818  C 7.14204545454546 0.106060606060606  7.43181818181818 0  7.77272727272727 0  L 10.2272727272727 0  C 10.5681818181818 0  10.8579545454545 0.106060606060606  11.0965909090909 0.318181818181818  C 11.3352272727273 0.530303030303029  11.4545454545455 0.787878787878787  11.4545454545455 1.09090909090909  L 11.4545454545455 5.81818181818182  L 16.7727272727273 5.81818181818182  C 17.1136363636364 5.81818181818182  17.4034090909091 5.92424242424242  17.6420454545455 6.13636363636364  Z " fill-rule="nonzero" fill="#ffffff" stroke="none" transform="matrix(1 0 0 1 1246 469 )" />
  </g>
</svg>