<?xml version="1.0" encoding="utf-8"?>
<svg version="1.1" xmlns:xlink="http://www.w3.org/1999/xlink" width="28px" height="25px" xmlns="http://www.w3.org/2000/svg">
  <g transform="matrix(1 0 0 1 -1223 -524 )">
    <path d="M 7 16.6666666666667  L 7 23  L 21 23  L 21 16.6666666666667  L 7 16.6666666666667  Z M 23.3333333333333 16.1458333333333  L 23.3333333333333 22.9166666666667  L 25.6666666666667 22.9166666666667  L 25.6666666666667 8.33333333333333  C 25.6666666666667 8.18142361111111  25.6059027777778 7.97254774305556  25.484375 7.70670572916667  C 25.3628472222222 7.44086371527778  25.2413194444444 7.25368923611111  25.1197916666667 7.14518229166667  L 19.9973958333333 2.57161458333333  C 19.8758680555556 2.46310763888889  19.6692708333333 2.35460069444444  19.3776041666667 2.24609375  C 19.0859375 2.13758680555556  18.8489583333333 2.08333333333333  18.6666666666667 2.08333333333333  L 18.6666666666667 8.85416666666667  C 18.6666666666667 9.28819444444444  18.4965277777778 9.65711805555556  18.15625 9.9609375  C 17.8159722222222 10.2647569444444  17.4027777777778 10.4166666666667  16.9166666666667 10.4166666666667  L 6.41666666666667 10.4166666666667  C 5.93055555555556 10.4166666666667  5.51736111111111 10.2647569444444  5.17708333333333 9.9609375  C 4.83680555555556 9.65711805555556  4.66666666666667 9.28819444444444  4.66666666666667 8.85416666666667  L 4.66666666666667 2.08333333333333  L 2.33333333333333 2.08333333333333  L 2.33333333333333 22.9166666666667  L 4.66666666666667 22.9166666666667  L 4.66666666666667 16.1458333333333  C 4.66666666666667 15.7118055555556  4.83680555555556 15.3428819444444  5.17708333333333 15.0390625  C 5.51736111111111 14.7352430555556  5.93055555555556 14.5833333333333  6.41666666666667 14.5833333333333  L 21.5833333333333 14.5833333333333  C 22.0694444444444 14.5833333333333  22.4826388888889 14.7352430555556  22.8229166666667 15.0390625  C 23.1631944444444 15.3428819444444  23.3333333333333 15.7118055555556  23.3333333333333 16.1458333333333  Z M 16.16015625 8.1787109375  C 16.2756076388889 8.07562934027778  16.3333333333333 7.95355902777778  16.3333333333333 7.8125  L 16.3333333333333 2.60416666666667  C 16.3333333333333 2.46310763888889  16.2756076388889 2.34103732638889  16.16015625 2.23795572916667  C 16.0447048611111 2.13487413194444  15.9079861111111 2.08333333333333  15.75 2.08333333333333  L 12.25 2.08333333333333  C 12.0920138888889 2.08333333333333  11.9552951388889 2.13487413194444  11.83984375 2.23795572916667  C 11.7243923611111 2.34103732638889  11.6666666666667 2.46310763888889  11.6666666666667 2.60416666666667  L 11.6666666666667 7.8125  C 11.6666666666667 7.95355902777778  11.7243923611111 8.07562934027778  11.83984375 8.1787109375  C 11.9552951388889 8.28179253472222  12.0920138888889 8.33333333333333  12.25 8.33333333333333  L 15.75 8.33333333333333  C 15.9079861111111 8.33333333333333  16.0447048611111 8.28179253472222  16.16015625 8.1787109375  Z M 27.6354166666667 6.90104166666667  C 27.8784722222222 7.421875  28 7.89930555555556  28 8.33333333333333  L 28 23.4375  C 28 23.8715277777778  27.8298611111111 24.2404513888889  27.4895833333333 24.5442708333333  C 27.1493055555556 24.8480902777778  26.7361111111111 25  26.25 25  L 1.75 25  C 1.26388888888889 25  0.850694444444445 24.8480902777778  0.510416666666667 24.5442708333333  C 0.170138888888889 24.2404513888889  0 23.8715277777778  0 23.4375  L 0 1.5625  C 0 1.12847222222222  0.170138888888889 0.759548611111108  0.510416666666667 0.455729166666666  C 0.850694444444445 0.151909722222221  1.26388888888889 0  1.75 0  L 18.6666666666667 0  C 19.1527777777778 0  19.6875 0.108506944444442  20.2708333333333 0.325520833333334  C 20.8541666666667 0.542534722222221  21.3159722222222 0.802951388888887  21.65625 1.10677083333333  L 26.7604166666667 5.6640625  C 27.1006944444444 5.96788194444444  27.3923611111111 6.38020833333333  27.6354166666667 6.90104166666667  Z " fill-rule="nonzero" fill="#333333" stroke="none" transform="matrix(1 0 0 1 1223 524 )" />
  </g>
</svg>