<?xml version="1.0" encoding="utf-8"?>
<svg version="1.1" xmlns:xlink="http://www.w3.org/1999/xlink" width="25px" height="24px" xmlns="http://www.w3.org/2000/svg">
  <g transform="matrix(1 0 0 1 -1374 -45 )">
    <path d="M 10.172193877551 21.946875  C 10.1615646258503 22.015625  10.172193877551 22.1  10.2040816326531 22.2  C 10.2040816326531 22.25  10.2093962585034 22.375  10.2200255102041 22.575  C 10.2306547619048 22.775  10.2333120748299 22.940625  10.2279974489796 23.071875  C 10.2226828231293 23.203125  10.2067389455782 23.35  10.1801658163265 23.5125  C 10.1535926870748 23.675  10.1004464285714 23.796875  10.0207270408163 23.878125  C 9.94100765306123 23.959375  9.83205782312925 24  9.69387755102041 24  L 4.59183673469388 24  C 3.32695578231293 24  2.24542942176871 23.471875  1.34725765306122 22.415625  C 0.449085884353741 21.359375  0 20.0875  0 18.6  L 0 5.4  C 0 3.9125  0.449085884353741 2.640625  1.34725765306122 1.584375  C 2.24542942176871 0.528124999999997  3.32695578231293 0  4.59183673469388 0  L 9.69387755102041 0  C 9.83205782312925 0  9.95163690476191 0.0593749999999966  10.0526147959184 0.178125000000001  C 10.1535926870748 0.296874999999999  10.2040816326531 0.437499999999999  10.2040816326531 0.600000000000001  C 10.2040816326531 0.649999999999998  10.2093962585034 0.774999999999999  10.2200255102041 0.975000000000001  C 10.2306547619048 1.175  10.2333120748299 1.340625  10.2279974489796 1.471875  C 10.2226828231293 1.603125  10.2067389455782 1.75  10.1801658163265 1.9125  C 10.1535926870748 2.075  10.1004464285714 2.196875  10.0207270408163 2.278125  C 9.94100765306123 2.359375  9.83205782312925 2.4  9.69387755102041 2.4  L 4.59183673469388 2.4  C 3.89030612244898 2.4  3.28975340136054 2.69375  2.79017857142857 3.28125  C 2.2906037414966 3.86875  2.04081632653061 4.575  2 5.4  L 2 18.6  C 2.04081632653061 19.425  2.2906037414966 20.13125  2.79017857142857 20.71875  C 3.28975340136054 21.30625  3.89030612244898 21.6  4.59183673469388 21.6  L 9.18367346938776 21.6  L 9.35905612244898 21.6  L 9.56632653061224 21.6  C 9.56632653061224 21.6  9.62744472789116 21.60625  9.74968112244898 21.61875  C 9.8719175170068 21.63125  9.93303571428571 21.65  9.93303571428571 21.675  C 9.93303571428571 21.7  9.97555272108844 21.734375  10.0605867346939 21.778125  C 10.1456207482993 21.821875  10.1828231292517 21.878125  10.172193877551 21.946875  Z M 24.6970663265306 11.15625  C 24.8990221088435 11.39375  25 11.675  25 12  C 25 12.325  24.8990221088435 12.60625  24.6970663265306 12.84375  L 16.0235969387755 23.04375  C 15.8216411564626 23.28125  15.5824829931973 23.4  15.3061224489796 23.4  C 15.0297619047619 23.4  14.7906037414966 23.28125  14.5886479591837 23.04375  C 14.3866921768707 22.80625  14.2857142857143 22.525  14.2857142857143 22.2  L 14.2857142857143 16.8  L 7.14285714285714 16.8  C 6.86649659863946 16.8  6.62733843537415 16.68125  6.42538265306122 16.44375  C 6.2234268707483 16.20625  6.12244897959184 15.925  6.12244897959184 15.6  L 6.12244897959184 8.4  C 6.12244897959184 8.075  6.2234268707483 7.79375  6.42538265306122 7.55625  C 6.62733843537415 7.31875  6.86649659863946 7.2  7.14285714285714 7.2  L 14.2857142857143 7.2  L 14.2857142857143 1.8  C 14.2857142857143 1.475  14.3866921768707 1.19375  14.5886479591837 0.956249999999999  C 14.7906037414966 0.718749999999999  15.0297619047619 0.600000000000001  15.3061224489796 0.600000000000001  C 15.5824829931973 0.600000000000001  15.8216411564626 0.718749999999999  16.0235969387755 0.956249999999999  L 24.6970663265306 11.15625  Z " fill-rule="nonzero" fill="#ffffff" stroke="none" transform="matrix(1 0 0 1 1374 45 )" />
  </g>
</svg>