<?xml version="1.0" encoding="utf-8"?>
<svg version="1.1" xmlns:xlink="http://www.w3.org/1999/xlink" width="20px" height="17px" xmlns="http://www.w3.org/2000/svg">
  <g transform="matrix(1 0 0 1 -256 -3 )">
    <path d="M 19.6875 11.6432291666667  C 19.8958333333333 11.8498263888889  20 12.1006944444444  20 12.3958333333333  L 20 15.9375  C 20 16.2326388888889  19.8958333333333 16.4835069444444  19.6875 16.6901041666667  C 19.4791666666667 16.8967013888889  19.2261904761905 17  18.9285714285714 17  L 15.3571428571429 17  C 15.0595238095238 17  14.8065476190476 16.8967013888889  14.5982142857143 16.6901041666667  C 14.389880952381 16.4835069444444  14.2857142857143 16.2326388888889  14.2857142857143 15.9375  L 14.2857142857143 12.3958333333333  C 14.2857142857143 12.1006944444444  14.389880952381 11.8498263888889  14.5982142857143 11.6432291666667  C 14.8065476190476 11.4366319444444  15.0595238095238 11.3333333333333  15.3571428571429 11.3333333333333  L 16.4285714285714 11.3333333333333  L 16.4285714285714 9.20833333333333  L 10.7142857142857 9.20833333333333  L 10.7142857142857 11.3333333333333  L 11.7857142857143 11.3333333333333  C 12.0833333333333 11.3333333333333  12.3363095238095 11.4366319444444  12.5446428571429 11.6432291666667  C 12.7529761904762 11.8498263888889  12.8571428571429 12.1006944444444  12.8571428571429 12.3958333333333  L 12.8571428571429 15.9375  C 12.8571428571429 16.2326388888889  12.7529761904762 16.4835069444444  12.5446428571429 16.6901041666667  C 12.3363095238095 16.8967013888889  12.0833333333333 17  11.7857142857143 17  L 8.21428571428571 17  C 7.91666666666667 17  7.66369047619048 16.8967013888889  7.45535714285714 16.6901041666667  C 7.24702380952381 16.4835069444444  7.14285714285714 16.2326388888889  7.14285714285714 15.9375  L 7.14285714285714 12.3958333333333  C 7.14285714285714 12.1006944444444  7.24702380952381 11.8498263888889  7.45535714285714 11.6432291666667  C 7.66369047619048 11.4366319444444  7.91666666666667 11.3333333333333  8.21428571428571 11.3333333333333  L 9.28571428571429 11.3333333333333  L 9.28571428571429 9.20833333333333  L 3.57142857142857 9.20833333333333  L 3.57142857142857 11.3333333333333  L 4.64285714285714 11.3333333333333  C 4.94047619047619 11.3333333333333  5.19345238095238 11.4366319444444  5.40178571428571 11.6432291666667  C 5.61011904761905 11.8498263888889  5.71428571428571 12.1006944444444  5.71428571428571 12.3958333333333  L 5.71428571428571 15.9375  C 5.71428571428571 16.2326388888889  5.61011904761905 16.4835069444444  5.40178571428571 16.6901041666667  C 5.19345238095238 16.8967013888889  4.94047619047619 17  4.64285714285714 17  L 1.07142857142857 17  C 0.773809523809524 17  0.520833333333333 16.8967013888889  0.3125 16.6901041666667  C 0.104166666666667 16.4835069444444  0 16.2326388888889  0 15.9375  L 0 12.3958333333333  C 0 12.1006944444444  0.104166666666667 11.8498263888889  0.3125 11.6432291666667  C 0.520833333333333 11.4366319444444  0.773809523809524 11.3333333333333  1.07142857142857 11.3333333333333  L 2.14285714285714 11.3333333333333  L 2.14285714285714 9.20833333333333  C 2.14285714285714 8.82465277777778  2.28422619047619 8.49262152777778  2.56696428571429 8.21223958333333  C 2.84970238095238 7.93185763888889  3.18452380952381 7.79166666666667  3.57142857142857 7.79166666666667  L 9.28571428571429 7.79166666666667  L 9.28571428571429 5.66666666666667  L 8.21428571428571 5.66666666666667  C 7.91666666666667 5.66666666666667  7.66369047619048 5.56336805555555  7.45535714285714 5.35677083333333  C 7.24702380952381 5.15017361111111  7.14285714285714 4.89930555555555  7.14285714285714 4.60416666666667  L 7.14285714285714 1.0625  C 7.14285714285714 0.76736111111111  7.24702380952381 0.516493055555553  7.45535714285714 0.309895833333333  C 7.66369047619048 0.10329861111111  7.91666666666667 0  8.21428571428571 0  L 11.7857142857143 0  C 12.0833333333333 0  12.3363095238095 0.10329861111111  12.5446428571429 0.309895833333333  C 12.7529761904762 0.516493055555553  12.8571428571429 0.76736111111111  12.8571428571429 1.0625  L 12.8571428571429 4.60416666666667  C 12.8571428571429 4.89930555555555  12.7529761904762 5.15017361111111  12.5446428571429 5.35677083333333  C 12.3363095238095 5.56336805555555  12.0833333333333 5.66666666666667  11.7857142857143 5.66666666666667  L 10.7142857142857 5.66666666666667  L 10.7142857142857 7.79166666666667  L 16.4285714285714 7.79166666666667  C 16.8154761904762 7.79166666666667  17.1502976190476 7.93185763888889  17.4330357142857 8.21223958333333  C 17.7157738095238 8.49262152777778  17.8571428571429 8.82465277777778  17.8571428571429 9.20833333333333  L 17.8571428571429 11.3333333333333  L 18.9285714285714 11.3333333333333  C 19.2261904761905 11.3333333333333  19.4791666666667 11.4366319444444  19.6875 11.6432291666667  Z " fill-rule="nonzero" fill="#ffffff" stroke="none" transform="matrix(1 0 0 1 256 3 )" />
  </g>
</svg>