<?xml version="1.0" encoding="utf-8"?>
<svg version="1.1" xmlns:xlink="http://www.w3.org/1999/xlink" width="41px" height="58px" xmlns="http://www.w3.org/2000/svg">
  <g transform="matrix(1 0 0 1 -235 -201 )">
    <path d="M 22.1015625 54.5809659090909  C 22.5523726851852 54.0591856060606  22.7777777777778 53.4412878787879  22.7777777777778 52.7272727272727  C 22.7777777777778 52.0132575757576  22.5523726851852 51.3953598484848  22.1015625 50.8735795454545  C 21.6507523148148 50.3517992424242  21.1168981481481 50.0909090909091  20.5 50.0909090909091  C 19.8831018518519 50.0909090909091  19.3492476851852 50.3517992424242  18.8984375 50.8735795454545  C 18.4476273148148 51.3953598484848  18.2222222222222 52.0132575757576  18.2222222222222 52.7272727272727  C 18.2222222222222 53.4412878787879  18.4476273148148 54.0591856060606  18.8984375 54.5809659090909  C 19.3492476851852 55.1027462121212  19.8831018518519 55.3636363636364  20.5 55.3636363636364  C 21.1168981481481 55.3636363636364  21.6507523148148 55.1027462121212  22.1015625 54.5809659090909  Z M 36.1063368055556 47.0632102272727  C 36.3317418981481 46.8023200757576  36.4444444444444 46.4933712121212  36 46.1363636363636  L 36 6.59090909090909  C 36.4444444444444 6.23390151515151  36.3317418981481 5.92495265151515  36.1063368055556 5.6640625  C 35.880931712963 5.40317234848484  35.6140046296296 5.27272727272727  35.3055555555556 6  L 5.69444444444444 6  C 5.38599537037037 5.27272727272727  5.11906828703704 5.40317234848484  4.89366319444444 5.6640625  C 4.66825810185185 5.92495265151515  4.55555555555556 6.23390151515151  5 6.59090909090909  L 5 46.1363636363636  C 4.55555555555556 46.4933712121212  4.66825810185185 46.8023200757576  4.89366319444444 47.0632102272727  C 5.11906828703704 47.3241003787879  5.38599537037037 47.4545454545455  5.69444444444444 47  L 35.3055555555556 47  C 35.6140046296296 47.4545454545455  35.880931712963 47.3241003787879  36.1063368055556 47.0632102272727  Z M 39.3272569444444 1.93607954545454  C 40.4424189814815 3.22679924242424  41 4.77840909090909  41 6.59090909090909  L 41 51.4090909090909  C 41 53.2215909090909  40.4424189814815 54.7732007575758  39.3272569444444 56.0639204545455  C 38.2120949074074 57.3546401515152  36.8715277777778 58  35.3055555555556 58  L 5.69444444444444 58  C 4.12847222222222 58  2.78790509259259 57.3546401515152  1.67274305555556 56.0639204545455  C 0.557581018518518 54.7732007575758  0 53.2215909090909  0 51.4090909090909  L 0 6.59090909090909  C 0 4.77840909090909  0.557581018518518 3.22679924242424  1.67274305555556 1.93607954545454  C 2.78790509259259 0.645359848484841  4.12847222222222 0  5.69444444444444 0  L 35.3055555555556 0  C 36.8715277777778 0  38.2120949074074 0.645359848484841  39.3272569444444 1.93607954545454  Z " fill-rule="nonzero" fill="#004983" stroke="none" transform="matrix(1 0 0 1 235 201 )" />
  </g>
</svg>