<?xml version="1.0" encoding="utf-8"?>
<svg version="1.1" xmlns:xlink="http://www.w3.org/1999/xlink" width="45px" height="34px" xmlns="http://www.w3.org/2000/svg">
  <g transform="matrix(1 0 0 1 -219 -726 )">
    <path d="M 9 17  L 14 17  L 14 28.3333333333333  L 9 28.3333333333333  L 9 17  Z M 17 5.66666666666667  L 22 5.66666666666667  L 22 28.3333333333333  L 17 28.3333333333333  L 17 5.66666666666667  Z M 3 31  L 45 31  L 45 34  L 0 34  L 0 0  L 3 0  L 3 31  Z M 25 11.3333333333333  L 31 11.3333333333333  L 31 28.3333333333333  L 25 28.3333333333333  L 25 11.3333333333333  Z M 33 2.83333333333333  L 39 2.83333333333333  L 39 28.3333333333333  L 33 28.3333333333333  L 33 2.83333333333333  Z " fill-rule="nonzero" fill="#333333" stroke="none" transform="matrix(1 0 0 1 219 726 )" />
  </g>
</svg>