<?xml version="1.0" encoding="utf-8"?>
<svg version="1.1" xmlns:xlink="http://www.w3.org/1999/xlink" width="45px" height="41px" xmlns="http://www.w3.org/2000/svg">
  <g transform="matrix(1 0 0 1 -218 -484 )">
    <path d="M 42.7040816326531 8.19466145833333  C 43.3883553421369 8.46158854166667  43.9195678271309 8.84418402777778  44.2977190876351 9.34244791666667  C 45.0180072028812 10.3567708333333  45.1800720288115 11.5045572916667  44.7839135654262 12.7858072916667  L 37.3559423769508 36.9694010416667  C 37.0138055222089 38.1082899305556  36.3250300120048 39.0647786458333  35.2896158463385 39.8388671875  C 34.2542016806723 40.6129557291667  33.1512605042017 41  31.9807923169268 41  L 7.04981992797119 41  C 5.66326530612245 41  4.32623049219688 40.5239800347222  3.03871548619448 39.5719401041667  C 1.75120048019208 38.6199001736111  0.855342136854742 37.4498697916667  0.351140456182473 36.0618489583333  C -0.0810324129651861 34.8695746527778  -0.0990396158463385 33.7395833333333  0.297118847539016 32.671875  C 0.297118847539016 32.6006944444444  0.324129651860744 32.3604600694444  0.378151260504202 31.951171875  C 0.432172869147659 31.5418836805556  0.468187274909964 31.2126736111111  0.486194477791116 30.9635416666667  C 0.504201680672269 30.8211805555556  0.47719087635054 30.6298828125  0.40516206482593 30.3896484375  C 0.333133253301321 30.1494140625  0.306122448979592 29.9759114583333  0.324129651860744 29.869140625  C 0.360144057623049 29.6733940972222  0.432172869147659 29.4865451388889  0.540216086434574 29.30859375  C 0.648259303721489 29.1306423611111  0.796818727490996 28.9215494791667  0.985894357743097 28.6813151041667  C 1.1749699879952 28.4410807291667  1.32352941176471 28.2319878472222  1.43157262905162 28.0540364583333  C 1.84573829531813 27.3778211805556  2.25090036014406 26.5636935763889  2.64705882352941 25.6116536458333  C 3.04321728691477 24.6596137152778  3.31332533013205 23.8454861111111  3.45738295318127 23.1692708333333  C 3.51140456182473 22.9913194444444  3.51590636254502 22.7243923611111  3.47088835534214 22.3684895833333  C 3.42587034813926 22.0125868055556  3.42136854741897 21.7634548611111  3.45738295318127 21.62109375  C 3.51140456182473 21.4253472222222  3.66446578631453 21.1762152777778  3.91656662665066 20.8736979166667  C 4.1686674669868 20.5711805555556  4.32172869147659 20.3665364583333  4.37575030012005 20.259765625  C 4.75390156062425 19.619140625  5.13205282112845 18.8005642361111  5.51020408163265 17.8040364583333  C 5.88835534213685 16.8075086805556  6.11344537815126 16.0067274305556  6.18547418967587 15.4016927083333  C 6.20348139255702 15.2415364583333  6.18097238895558 14.9568142361111  6.11794717887155 14.5475260416667  C 6.05492196878752 14.1382378472222  6.0594237695078 13.8891059027778  6.13145258103241 13.8001302083333  C 6.20348139255702 13.5687934027778  6.4015606242497 13.2974175347222  6.72569027611044 12.9860026041667  C 7.04981992797119 12.6745876736111  7.24789915966387 12.4743923611111  7.31992797118848 12.3854166666667  C 7.66206482593037 11.9227430555556  8.04471788715486 11.1708984375  8.46788715486194 10.1298828125  C 8.89105642256903 9.0888671875  9.13865546218488 8.23025173611111  9.21068427370948 7.55403645833333  C 9.22869147659064 7.41167534722222  9.20168067226891 7.18478732638888  9.1296518607443 6.87337239583333  C 9.05762304921969 6.56195746527777  9.03961584633854 6.326171875  9.07563025210084 6.166015625  C 9.11164465786315 6.02365451388888  9.19267707082833 5.86349826388888  9.3187274909964 5.685546875  C 9.44477791116447 5.50759548611111  9.60684273709484 5.30295138888888  9.80492196878751 5.07161458333333  C 10.0030012004802 4.84027777777777  10.15606242497 4.65342881944444  10.2641056422569 4.51106770833333  C 10.4081632653061 4.29752604166667  10.5567226890756 4.02615017361111  10.7097839135654 3.69694010416667  C 10.8628451380552 3.36773003472222  10.9978991596639 3.05631510416667  11.1149459783914 2.7626953125  C 11.2319927971188 2.46907552083333  11.3760504201681 2.14876302083333  11.547118847539 1.8017578125  C 11.71818727491 1.45475260416667  11.8937575030012 1.17003038194444  12.0738295318127 0.947591145833332  C 12.2539015606243 0.725151909722217  12.4924969987995 0.516059027777774  12.7896158463385 0.3203125  C 13.0867346938776 0.124565972222217  13.4108643457383 0.0222439236111106  13.7620048019208 0.0133463541666682  C 14.1131452581032 0.00444878472221666  14.5408163265306 0.0533854166666682  15.0450180072029 0.16015625  L 15.0180072028812 0.240234375  C 15.7022809123649 0.080078125  16.1614645858343 0  16.3955582232893 0  L 36.9507803121248 0  C 38.2833133253301 0  39.3097238895558 0.498263888888885  40.0300120048019 1.49479166666667  C 40.750300120048 2.49131944444444  40.9123649459784 3.64800347222222  40.516206482593 4.96484375  L 33.1152460984394 29.1484375  C 32.4669867947179 31.2660590277778  31.8232292917167 32.6318359375  31.1839735894358 33.2457682291667  C 30.5447178871549 33.8597005208333  29.3877551020408 34.1666666666667  27.7130852340936 34  L 4.2406962785114 34  C 3.75450180072029 34.1666666666667  3.41236494597839 34.3001302083333  3.21428571428571 34.5670572916667  C 3.01620648259304 34.8517795138889  3.00720288115246 35.234375  3.18727490996399 35.71484375  C 3.61944777911164 36.9605034722222  4.91596638655462 37.5833333333333  7.07683073229292 37  L 32.0078031212485 37  C 32.5300120048019 37.5833333333333  33.0342136854742 37.4454210069444  33.5204081632653 37.1695963541667  C 34.0066026410564 36.8937717013889  34.3217286914766 36.5245225694444  34.4657863145258 36.0618489583333  L 42.5690276110444 9.71614583333333  C 42.6950780312125 9.32465277777778  42.7400960384154 8.81749131944444  42.7040816326531 8.19466145833333  Z M 16.125450180072 7.6875  L 15.5582232893157 9.39583333333333  C 15.4861944777911 9.62717013888889  15.5042016806723 9.82736545138889  15.6122448979592 9.99641927083333  C 15.7202881152461 10.1654730902778  15.9003601440576 10.25  16.1524609843938 11  L 32.5750300120048 11  C 32.8091236494598 10.25  33.0387154861945 10.1654730902778  33.2638055222089 9.99641927083333  C 33.4888955582233 9.82736545138889  33.6374549819928 9.62717013888889  33.7094837935174 9.39583333333333  L 34.2767106842737 7.6875  C 34.3487394957983 7.45616319444444  34.3307322929172 7.25596788194444  34.2226890756303 7.0869140625  C 34.1146458583433 6.91786024305555  33.9345738295318 6.83333333333333  33.6824729891957 7  L 17.2599039615846 7  C 17.0258103241297 6.83333333333333  16.796218487395 6.91786024305555  16.5711284513806 7.0869140625  C 16.3460384153661 7.25596788194444  16.1974789915966 7.45616319444444  16.125450180072 7.6875  Z M 13.8835534213685 14.5208333333333  L 13.3163265306122 16.2291666666667  C 13.2442977190876 16.4605034722222  13.2623049219688 16.6606987847222  13.3703481392557 16.8297526041667  C 13.4783913565426 16.9988064236111  13.6584633853541 17.0833333333333  13.9105642256903 17  L 30.3331332533013 17  C 30.5672268907563 17.0833333333333  30.796818727491 16.9988064236111  31.0219087635054 16.8297526041667  C 31.2469987995198 16.6606987847222  31.3955582232893 16.4605034722222  31.4675870348139 16.2291666666667  L 32.0348139255702 14.5208333333333  C 32.1068427370948 14.2894965277778  32.0888355342137 14.0893012152778  31.9807923169268 13.9202473958333  C 31.8727490996399 13.7511935763889  31.6926770708283 13.6666666666667  31.4405762304922 14  L 15.0180072028812 14  C 14.7839135654262 13.6666666666667  14.5543217286915 13.7511935763889  14.3292316926771 13.9202473958333  C 14.1041416566627 14.0893012152778  13.9555822328932 14.2894965277778  13.8835534213685 14.5208333333333  Z " fill-rule="nonzero" fill="#333333" stroke="none" transform="matrix(1 0 0 1 218 484 )" />
  </g>
</svg>